<svg width="19" height="18" viewBox="0 0 19 18" fill="none" xmlns="http://www.w3.org/2000/svg">
<path d="M1 1H3.58836L4.37862 3.74871C4.39007 3.74871 4.39007 3.74871 4.40152 3.74871H17.7098H18.1794L18.0305 4.19537L15.9346 11.1244H6.00493C5.84459 11.1244 5.76442 11.1244 5.76442 11.1244L3.08443 1.68718H1V1ZM6.26835 10.4372H15.4307L17.2403 4.43588H4.57332L6.26835 10.4372Z" fill="#1E3932" stroke="#1E3932" stroke-miterlimit="10"/>
<path d="M6.53196 16.7822C5.45538 16.7822 4.58496 15.9118 4.58496 14.8352C4.58496 13.7586 5.45538 12.8882 6.53196 12.8882C7.60854 12.8882 8.47896 13.7586 8.47896 14.8352C8.47896 15.9118 7.60854 16.7822 6.53196 16.7822ZM6.53196 13.5868C5.84478 13.5868 5.28359 14.148 5.28359 14.8352C5.28359 15.5224 5.84478 16.0836 6.53196 16.0836C7.21914 16.0836 7.78033 15.5224 7.78033 14.8352C7.79178 14.148 7.23059 13.5868 6.53196 13.5868Z" fill="#1E3932" stroke="#1E3932" stroke-miterlimit="10"/>
<path d="M14.6863 16.7822C13.6097 16.7822 12.7393 15.9118 12.7393 14.8352C12.7393 13.7586 13.6097 12.8882 14.6863 12.8882C15.7628 12.8882 16.6333 13.7586 16.6333 14.8352C16.6218 15.9118 15.7514 16.7822 14.6863 16.7822ZM14.6863 13.5868C13.9991 13.5868 13.4379 14.148 13.4379 14.8352C13.4379 15.5224 13.9991 16.0836 14.6863 16.0836C15.3734 16.0836 15.9346 15.5224 15.9346 14.8352C15.9346 14.148 15.3734 13.5868 14.6863 13.5868Z" fill="#1E3932" stroke="#1E3932" stroke-miterlimit="10"/>
</svg>
